<svg width="108" height="48" viewBox="0 0 108 48" fill="none" xmlns="http://www.w3.org/2000/svg">
<rect x="0.5" y="0.5" width="107" height="47" rx="5.5" stroke="#1EBFC1"/>
<path d="M29.0303 30.112C28.2516 30.112 27.5476 29.9787 26.9183 29.712C26.2996 29.4453 25.809 29.0613 25.4463 28.56C25.0836 28.0587 24.897 27.4667 24.8863 26.784H27.2863C27.3183 27.2427 27.4783 27.6053 27.7663 27.872C28.065 28.1387 28.4703 28.272 28.9823 28.272C29.505 28.272 29.9156 28.1493 30.2143 27.904C30.513 27.648 30.6623 27.3173 30.6623 26.912C30.6623 26.5813 30.561 26.3093 30.3583 26.096C30.1556 25.8827 29.8996 25.7173 29.5903 25.6C29.2916 25.472 28.8756 25.3333 28.3423 25.184C27.617 24.9707 27.025 24.7627 26.5663 24.56C26.1183 24.3467 25.729 24.032 25.3983 23.616C25.0783 23.1893 24.9183 22.624 24.9183 21.92C24.9183 21.2587 25.0836 20.6827 25.4143 20.192C25.745 19.7013 26.209 19.328 26.8063 19.072C27.4036 18.8053 28.0863 18.672 28.8543 18.672C30.0063 18.672 30.9396 18.9547 31.6543 19.52C32.3796 20.0747 32.7796 20.8533 32.8543 21.856H30.3903C30.369 21.472 30.2036 21.1573 29.8943 20.912C29.5956 20.656 29.1956 20.528 28.6943 20.528C28.257 20.528 27.905 20.64 27.6383 20.864C27.3823 21.088 27.2543 21.4133 27.2543 21.84C27.2543 22.1387 27.3503 22.3893 27.5423 22.592C27.745 22.784 27.9903 22.944 28.2783 23.072C28.577 23.1893 28.993 23.328 29.5263 23.488C30.2516 23.7013 30.8436 23.9147 31.3023 24.128C31.761 24.3413 32.1556 24.6613 32.4863 25.088C32.817 25.5147 32.9823 26.0747 32.9823 26.768C32.9823 27.3653 32.8276 27.92 32.5183 28.432C32.209 28.944 31.7556 29.3547 31.1583 29.664C30.561 29.9627 29.8516 30.112 29.0303 30.112ZM36.0603 20.08C35.6656 20.08 35.335 19.9573 35.0683 19.712C34.8123 19.456 34.6843 19.1413 34.6843 18.768C34.6843 18.3947 34.8123 18.0853 35.0683 17.84C35.335 17.584 35.6656 17.456 36.0603 17.456C36.455 17.456 36.7803 17.584 37.0363 17.84C37.303 18.0853 37.4363 18.3947 37.4363 18.768C37.4363 19.1413 37.303 19.456 37.0363 19.712C36.7803 19.9573 36.455 20.08 36.0603 20.08ZM37.1643 21.136V30H34.9243V21.136H37.1643ZM42.8494 20.992C43.5108 20.992 44.0921 21.1253 44.5934 21.392C45.0948 21.648 45.4894 21.984 45.7774 22.4V21.136H48.0334V30.064C48.0334 30.8853 47.8681 31.616 47.5374 32.256C47.2068 32.9067 46.7108 33.4187 46.0494 33.792C45.3881 34.176 44.5881 34.368 43.6494 34.368C42.3908 34.368 41.3561 34.0747 40.5454 33.488C39.7454 32.9013 39.2921 32.1013 39.1854 31.088H41.4094C41.5268 31.4933 41.7774 31.8133 42.1614 32.048C42.5561 32.2933 43.0308 32.416 43.5854 32.416C44.2361 32.416 44.7641 32.2187 45.1694 31.824C45.5748 31.44 45.7774 30.8533 45.7774 30.064V28.688C45.4894 29.104 45.0894 29.4507 44.5774 29.728C44.0761 30.0053 43.5001 30.144 42.8494 30.144C42.1028 30.144 41.4201 29.952 40.8014 29.568C40.1828 29.184 39.6921 28.6453 39.3294 27.952C38.9774 27.248 38.8014 26.4427 38.8014 25.536C38.8014 24.64 38.9774 23.8453 39.3294 23.152C39.6921 22.4587 40.1774 21.9253 40.7854 21.552C41.4041 21.1787 42.0921 20.992 42.8494 20.992ZM45.7774 25.568C45.7774 25.024 45.6708 24.56 45.4574 24.176C45.2441 23.7813 44.9561 23.4827 44.5934 23.28C44.2308 23.0667 43.8414 22.96 43.4254 22.96C43.0094 22.96 42.6254 23.0613 42.2734 23.264C41.9214 23.4667 41.6334 23.7653 41.4094 24.16C41.1961 24.544 41.0894 25.0027 41.0894 25.536C41.0894 26.0693 41.1961 26.5387 41.4094 26.944C41.6334 27.3387 41.9214 27.6427 42.2734 27.856C42.6361 28.0693 43.0201 28.176 43.4254 28.176C43.8414 28.176 44.2308 28.0747 44.5934 27.872C44.9561 27.6587 45.2441 27.36 45.4574 26.976C45.6708 26.5813 45.7774 26.112 45.7774 25.568ZM55.1332 21.008C56.1892 21.008 57.0425 21.344 57.6932 22.016C58.3439 22.6773 58.6692 23.6053 58.6692 24.8V30H56.4292V25.104C56.4292 24.4 56.2532 23.8613 55.9012 23.488C55.5492 23.104 55.0692 22.912 54.4612 22.912C53.8425 22.912 53.3519 23.104 52.9892 23.488C52.6372 23.8613 52.4612 24.4 52.4612 25.104V30H50.2212V21.136H52.4612V22.24C52.7599 21.856 53.1385 21.5573 53.5972 21.344C54.0665 21.12 54.5785 21.008 55.1332 21.008ZM72.9798 21.136V30H70.7238V28.88C70.4358 29.264 70.0571 29.568 69.5878 29.792C69.1291 30.0053 68.6278 30.112 68.0838 30.112C67.3905 30.112 66.7771 29.968 66.2438 29.68C65.7105 29.3813 65.2891 28.9493 64.9798 28.384C64.6811 27.808 64.5318 27.1253 64.5318 26.336V21.136H66.7718V26.016C66.7718 26.72 66.9478 27.264 67.2998 27.648C67.6518 28.0213 68.1318 28.208 68.7398 28.208C69.3585 28.208 69.8438 28.0213 70.1958 27.648C70.5478 27.264 70.7238 26.72 70.7238 26.016V21.136H72.9798ZM77.4299 22.416C77.7179 22.0107 78.1126 21.6747 78.6139 21.408C79.1259 21.1307 79.7073 20.992 80.3579 20.992C81.1153 20.992 81.7979 21.1787 82.4059 21.552C83.0246 21.9253 83.5099 22.4587 83.8619 23.152C84.2246 23.8347 84.4059 24.6293 84.4059 25.536C84.4059 26.4427 84.2246 27.248 83.8619 27.952C83.5099 28.6453 83.0246 29.184 82.4059 29.568C81.7979 29.952 81.1153 30.144 80.3579 30.144C79.7073 30.144 79.1313 30.0107 78.6299 29.744C78.1393 29.4773 77.7393 29.1413 77.4299 28.736V34.224H75.1899V21.136H77.4299V22.416ZM82.1179 25.536C82.1179 25.0027 82.0059 24.544 81.7819 24.16C81.5686 23.7653 81.2806 23.4667 80.9179 23.264C80.5659 23.0613 80.1819 22.96 79.7659 22.96C79.3606 22.96 78.9766 23.0667 78.6139 23.28C78.2619 23.4827 77.9739 23.7813 77.7499 24.176C77.5366 24.5707 77.4299 25.0347 77.4299 25.568C77.4299 26.1013 77.5366 26.5653 77.7499 26.96C77.9739 27.3547 78.2619 27.6587 78.6139 27.872C78.9766 28.0747 79.3606 28.176 79.7659 28.176C80.1819 28.176 80.5659 28.0693 80.9179 27.856C81.2806 27.6427 81.5686 27.3387 81.7819 26.944C82.0059 26.5493 82.1179 26.08 82.1179 25.536Z" fill="#1EBFC1"/>
</svg>
